<mxfile host="app.diagrams.net" agent="Mozilla/5.0 (X11; Ubuntu; Linux x86_64; rv:136.0) Gecko/20100101 Firefox/136.0" version="26.1.1">
  <diagram name="Page-1" id="ePqqt8Bp1htOQtsbUhbJ">
    <mxGraphModel dx="1050" dy="606" grid="1" gridSize="10" guides="1" tooltips="1" connect="1" arrows="1" fold="1" page="1" pageScale="1" pageWidth="850" pageHeight="1100" math="0" shadow="0">
      <root>
        <mxCell id="0" />
        <mxCell id="1" parent="0" />
        <mxCell id="y4kUTRMp_-QWgq1k1_cl-1" value="customer" style="shape=umlActor;verticalLabelPosition=bottom;verticalAlign=top;html=1;outlineConnect=0;" vertex="1" parent="1">
          <mxGeometry x="190" y="575" width="30" height="60" as="geometry" />
        </mxCell>
        <mxCell id="y4kUTRMp_-QWgq1k1_cl-2" value="Admin" style="shape=umlActor;verticalLabelPosition=bottom;verticalAlign=top;html=1;outlineConnect=0;" vertex="1" parent="1">
          <mxGeometry x="760" y="635" width="30" height="60" as="geometry" />
        </mxCell>
        <mxCell id="y4kUTRMp_-QWgq1k1_cl-3" value="park owner" style="shape=umlActor;verticalLabelPosition=bottom;verticalAlign=top;html=1;outlineConnect=0;" vertex="1" parent="1">
          <mxGeometry x="730" y="120" width="30" height="60" as="geometry" />
        </mxCell>
        <mxCell id="y4kUTRMp_-QWgq1k1_cl-6" value="parking agent" style="shape=umlActor;verticalLabelPosition=bottom;verticalAlign=top;html=1;outlineConnect=0;" vertex="1" parent="1">
          <mxGeometry x="190" y="120" width="30" height="60" as="geometry" />
        </mxCell>
        <mxCell id="y4kUTRMp_-QWgq1k1_cl-7" value="" style="endArrow=classic;html=1;rounded=0;" edge="1" parent="1">
          <mxGeometry width="50" height="50" relative="1" as="geometry">
            <mxPoint x="200" y="210" as="sourcePoint" />
            <mxPoint x="200" y="560" as="targetPoint" />
          </mxGeometry>
        </mxCell>
        <mxCell id="y4kUTRMp_-QWgq1k1_cl-8" value="" style="rounded=0;whiteSpace=wrap;html=1;" vertex="1" parent="1">
          <mxGeometry x="290" y="30" width="390" height="900" as="geometry" />
        </mxCell>
        <mxCell id="y4kUTRMp_-QWgq1k1_cl-9" value="add park" style="ellipse;whiteSpace=wrap;html=1;" vertex="1" parent="1">
          <mxGeometry x="310" y="50" width="80" height="50" as="geometry" />
        </mxCell>
        <mxCell id="y4kUTRMp_-QWgq1k1_cl-11" value="edit park" style="ellipse;whiteSpace=wrap;html=1;" vertex="1" parent="1">
          <mxGeometry x="410" y="50" width="80" height="50" as="geometry" />
        </mxCell>
        <mxCell id="y4kUTRMp_-QWgq1k1_cl-12" value="delete park" style="ellipse;whiteSpace=wrap;html=1;" vertex="1" parent="1">
          <mxGeometry x="500" y="50" width="80" height="50" as="geometry" />
        </mxCell>
        <mxCell id="y4kUTRMp_-QWgq1k1_cl-13" value="" style="endArrow=none;html=1;rounded=0;exitX=0.5;exitY=1;exitDx=0;exitDy=0;entryX=0.25;entryY=0.1;entryDx=0;entryDy=0;entryPerimeter=0;" edge="1" parent="1" source="y4kUTRMp_-QWgq1k1_cl-9" target="y4kUTRMp_-QWgq1k1_cl-3">
          <mxGeometry width="50" height="50" relative="1" as="geometry">
            <mxPoint x="430" y="200" as="sourcePoint" />
            <mxPoint x="480" y="150" as="targetPoint" />
            <Array as="points">
              <mxPoint x="350" y="126" />
              <mxPoint x="550" y="140" />
              <mxPoint x="650" y="140" />
            </Array>
          </mxGeometry>
        </mxCell>
        <mxCell id="y4kUTRMp_-QWgq1k1_cl-14" value="" style="endArrow=none;html=1;rounded=0;entryX=0.5;entryY=1;entryDx=0;entryDy=0;exitX=0.25;exitY=0.1;exitDx=0;exitDy=0;exitPerimeter=0;" edge="1" parent="1" source="y4kUTRMp_-QWgq1k1_cl-3" target="y4kUTRMp_-QWgq1k1_cl-11">
          <mxGeometry width="50" height="50" relative="1" as="geometry">
            <mxPoint x="470" y="230" as="sourcePoint" />
            <mxPoint x="520" y="180" as="targetPoint" />
            <Array as="points">
              <mxPoint x="550" y="130" />
              <mxPoint x="450" y="120" />
            </Array>
          </mxGeometry>
        </mxCell>
        <mxCell id="y4kUTRMp_-QWgq1k1_cl-15" value="" style="endArrow=none;html=1;rounded=0;exitX=0.5;exitY=1;exitDx=0;exitDy=0;entryX=0.25;entryY=0.1;entryDx=0;entryDy=0;entryPerimeter=0;" edge="1" parent="1" source="y4kUTRMp_-QWgq1k1_cl-12" target="y4kUTRMp_-QWgq1k1_cl-3">
          <mxGeometry width="50" height="50" relative="1" as="geometry">
            <mxPoint x="380" y="250" as="sourcePoint" />
            <mxPoint x="430" y="200" as="targetPoint" />
            <Array as="points">
              <mxPoint x="560" y="120" />
              <mxPoint x="650" y="120" />
            </Array>
          </mxGeometry>
        </mxCell>
        <mxCell id="y4kUTRMp_-QWgq1k1_cl-16" value="set price" style="ellipse;whiteSpace=wrap;html=1;" vertex="1" parent="1">
          <mxGeometry x="590" y="50" width="80" height="50" as="geometry" />
        </mxCell>
        <mxCell id="y4kUTRMp_-QWgq1k1_cl-17" value="modify availability" style="ellipse;whiteSpace=wrap;html=1;" vertex="1" parent="1">
          <mxGeometry x="310" y="180" width="80" height="50" as="geometry" />
        </mxCell>
        <mxCell id="y4kUTRMp_-QWgq1k1_cl-18" value="" style="endArrow=none;html=1;rounded=0;exitX=1;exitY=0.5;exitDx=0;exitDy=0;entryX=0.5;entryY=0;entryDx=0;entryDy=0;entryPerimeter=0;" edge="1" parent="1" source="y4kUTRMp_-QWgq1k1_cl-16" target="y4kUTRMp_-QWgq1k1_cl-3">
          <mxGeometry width="50" height="50" relative="1" as="geometry">
            <mxPoint x="760" y="80" as="sourcePoint" />
            <mxPoint x="810" y="30" as="targetPoint" />
            <Array as="points">
              <mxPoint x="740" y="75" />
            </Array>
          </mxGeometry>
        </mxCell>
        <mxCell id="y4kUTRMp_-QWgq1k1_cl-19" value="" style="endArrow=none;html=1;rounded=0;entryX=0;entryY=0.5;entryDx=0;entryDy=0;" edge="1" parent="1" target="y4kUTRMp_-QWgq1k1_cl-17">
          <mxGeometry width="50" height="50" relative="1" as="geometry">
            <mxPoint x="220" y="150" as="sourcePoint" />
            <mxPoint x="270" y="100" as="targetPoint" />
          </mxGeometry>
        </mxCell>
        <mxCell id="y4kUTRMp_-QWgq1k1_cl-20" value="&lt;div&gt;view&amp;nbsp;&lt;/div&gt;&lt;div&gt;bookings&lt;/div&gt;" style="ellipse;whiteSpace=wrap;html=1;" vertex="1" parent="1">
          <mxGeometry x="400" y="180" width="80" height="50" as="geometry" />
        </mxCell>
        <mxCell id="y4kUTRMp_-QWgq1k1_cl-21" value="&lt;div&gt;view&amp;nbsp;&lt;/div&gt;&lt;div&gt;account&lt;/div&gt;" style="ellipse;whiteSpace=wrap;html=1;" vertex="1" parent="1">
          <mxGeometry x="490" y="180" width="80" height="50" as="geometry" />
        </mxCell>
        <mxCell id="y4kUTRMp_-QWgq1k1_cl-22" value="&lt;div&gt;update &lt;br&gt;&lt;/div&gt;&lt;div&gt;account&lt;/div&gt;" style="ellipse;whiteSpace=wrap;html=1;" vertex="1" parent="1">
          <mxGeometry x="580" y="180" width="80" height="50" as="geometry" />
        </mxCell>
        <mxCell id="y4kUTRMp_-QWgq1k1_cl-23" value="" style="endArrow=none;html=1;rounded=0;exitX=0.41;exitY=0.036;exitDx=0;exitDy=0;exitPerimeter=0;" edge="1" parent="1" source="y4kUTRMp_-QWgq1k1_cl-17">
          <mxGeometry width="50" height="50" relative="1" as="geometry">
            <mxPoint x="100" y="110" as="sourcePoint" />
            <mxPoint x="730" y="150" as="targetPoint" />
            <Array as="points">
              <mxPoint x="343" y="150" />
              <mxPoint x="540" y="150" />
              <mxPoint x="640" y="150" />
            </Array>
          </mxGeometry>
        </mxCell>
        <mxCell id="y4kUTRMp_-QWgq1k1_cl-24" value="" style="endArrow=none;html=1;rounded=0;exitX=0.5;exitY=0;exitDx=0;exitDy=0;" edge="1" parent="1" source="y4kUTRMp_-QWgq1k1_cl-20" target="y4kUTRMp_-QWgq1k1_cl-3">
          <mxGeometry width="50" height="50" relative="1" as="geometry">
            <mxPoint x="440" y="350" as="sourcePoint" />
            <mxPoint x="490" y="300" as="targetPoint" />
            <Array as="points">
              <mxPoint x="440" y="160" />
            </Array>
          </mxGeometry>
        </mxCell>
        <mxCell id="y4kUTRMp_-QWgq1k1_cl-25" value="" style="endArrow=none;html=1;rounded=0;exitX=0.5;exitY=0;exitDx=0;exitDy=0;" edge="1" parent="1" source="y4kUTRMp_-QWgq1k1_cl-21" target="y4kUTRMp_-QWgq1k1_cl-3">
          <mxGeometry width="50" height="50" relative="1" as="geometry">
            <mxPoint x="510" y="350" as="sourcePoint" />
            <mxPoint x="560" y="300" as="targetPoint" />
            <Array as="points">
              <mxPoint x="540" y="170" />
            </Array>
          </mxGeometry>
        </mxCell>
        <mxCell id="y4kUTRMp_-QWgq1k1_cl-26" value="" style="endArrow=none;html=1;rounded=0;exitX=1;exitY=0;exitDx=0;exitDy=0;" edge="1" parent="1" source="y4kUTRMp_-QWgq1k1_cl-22" target="y4kUTRMp_-QWgq1k1_cl-3">
          <mxGeometry width="50" height="50" relative="1" as="geometry">
            <mxPoint x="610" y="350" as="sourcePoint" />
            <mxPoint x="660" y="300" as="targetPoint" />
          </mxGeometry>
        </mxCell>
        <mxCell id="y4kUTRMp_-QWgq1k1_cl-27" value="" style="endArrow=none;html=1;rounded=0;entryX=0.5;entryY=1;entryDx=0;entryDy=0;" edge="1" parent="1" target="y4kUTRMp_-QWgq1k1_cl-20">
          <mxGeometry width="50" height="50" relative="1" as="geometry">
            <mxPoint x="250" y="200" as="sourcePoint" />
            <mxPoint x="470" y="260" as="targetPoint" />
            <Array as="points">
              <mxPoint x="340" y="240" />
              <mxPoint x="440" y="260" />
            </Array>
          </mxGeometry>
        </mxCell>
        <mxCell id="y4kUTRMp_-QWgq1k1_cl-28" value="" style="endArrow=none;html=1;rounded=0;entryX=0.5;entryY=1;entryDx=0;entryDy=0;" edge="1" parent="1" target="y4kUTRMp_-QWgq1k1_cl-21">
          <mxGeometry width="50" height="50" relative="1" as="geometry">
            <mxPoint x="240" y="210" as="sourcePoint" />
            <mxPoint x="490" y="300" as="targetPoint" />
            <Array as="points">
              <mxPoint x="370" y="280" />
              <mxPoint x="530" y="280" />
            </Array>
          </mxGeometry>
        </mxCell>
        <mxCell id="y4kUTRMp_-QWgq1k1_cl-29" value="" style="endArrow=none;html=1;rounded=0;entryX=0.5;entryY=1;entryDx=0;entryDy=0;" edge="1" parent="1" target="y4kUTRMp_-QWgq1k1_cl-22">
          <mxGeometry width="50" height="50" relative="1" as="geometry">
            <mxPoint x="230" y="220" as="sourcePoint" />
            <mxPoint x="580" y="310" as="targetPoint" />
            <Array as="points">
              <mxPoint x="350" y="300" />
              <mxPoint x="620" y="300" />
            </Array>
          </mxGeometry>
        </mxCell>
        <mxCell id="y4kUTRMp_-QWgq1k1_cl-30" value="&lt;div&gt;view&amp;nbsp;&lt;/div&gt;&lt;div&gt;earnings&lt;/div&gt;" style="ellipse;whiteSpace=wrap;html=1;" vertex="1" parent="1">
          <mxGeometry x="590" y="320" width="80" height="50" as="geometry" />
        </mxCell>
        <mxCell id="y4kUTRMp_-QWgq1k1_cl-32" value="" style="endArrow=none;html=1;rounded=0;exitX=1;exitY=0;exitDx=0;exitDy=0;" edge="1" parent="1" source="y4kUTRMp_-QWgq1k1_cl-30">
          <mxGeometry width="50" height="50" relative="1" as="geometry">
            <mxPoint x="730" y="300" as="sourcePoint" />
            <mxPoint x="740" y="200" as="targetPoint" />
          </mxGeometry>
        </mxCell>
        <mxCell id="y4kUTRMp_-QWgq1k1_cl-33" value="&lt;div&gt;add&lt;/div&gt;&lt;div&gt;agent&lt;/div&gt;" style="ellipse;whiteSpace=wrap;html=1;" vertex="1" parent="1">
          <mxGeometry x="480" y="320" width="80" height="50" as="geometry" />
        </mxCell>
        <mxCell id="y4kUTRMp_-QWgq1k1_cl-34" value="" style="endArrow=none;html=1;rounded=0;exitX=1;exitY=0;exitDx=0;exitDy=0;" edge="1" parent="1" source="y4kUTRMp_-QWgq1k1_cl-33">
          <mxGeometry width="50" height="50" relative="1" as="geometry">
            <mxPoint x="780" y="370" as="sourcePoint" />
            <mxPoint x="710" y="200" as="targetPoint" />
            <Array as="points">
              <mxPoint x="640" y="310" />
            </Array>
          </mxGeometry>
        </mxCell>
        <mxCell id="y4kUTRMp_-QWgq1k1_cl-35" value="&lt;div&gt;scan&amp;nbsp;&lt;/div&gt;&lt;div&gt;QR code&lt;/div&gt;" style="ellipse;whiteSpace=wrap;html=1;" vertex="1" parent="1">
          <mxGeometry x="390" y="320" width="80" height="50" as="geometry" />
        </mxCell>
        <mxCell id="y4kUTRMp_-QWgq1k1_cl-36" value="login" style="ellipse;whiteSpace=wrap;html=1;" vertex="1" parent="1">
          <mxGeometry x="310" y="422" width="80" height="50" as="geometry" />
        </mxCell>
        <mxCell id="y4kUTRMp_-QWgq1k1_cl-37" value="register" style="ellipse;whiteSpace=wrap;html=1;" vertex="1" parent="1">
          <mxGeometry x="400" y="422" width="80" height="50" as="geometry" />
        </mxCell>
        <mxCell id="y4kUTRMp_-QWgq1k1_cl-38" value="&lt;div&gt;edit &lt;br&gt;&lt;/div&gt;&lt;div&gt;profile&lt;/div&gt;" style="ellipse;whiteSpace=wrap;html=1;" vertex="1" parent="1">
          <mxGeometry x="490" y="422" width="80" height="50" as="geometry" />
        </mxCell>
        <mxCell id="y4kUTRMp_-QWgq1k1_cl-39" value="&lt;div&gt;search&lt;/div&gt;&lt;div&gt;slots&lt;/div&gt;" style="ellipse;whiteSpace=wrap;html=1;" vertex="1" parent="1">
          <mxGeometry x="310" y="510" width="80" height="50" as="geometry" />
        </mxCell>
        <mxCell id="y4kUTRMp_-QWgq1k1_cl-40" value="&lt;div&gt;view&lt;/div&gt;&lt;div&gt;real time&lt;/div&gt;&lt;div&gt;parking&lt;/div&gt;" style="ellipse;whiteSpace=wrap;html=1;" vertex="1" parent="1">
          <mxGeometry x="400" y="510" width="90" height="50" as="geometry" />
        </mxCell>
        <mxCell id="y4kUTRMp_-QWgq1k1_cl-41" value="&lt;div&gt;book&lt;/div&gt;&lt;div&gt;slot&lt;/div&gt;" style="ellipse;whiteSpace=wrap;html=1;" vertex="1" parent="1">
          <mxGeometry x="500" y="510" width="80" height="50" as="geometry" />
        </mxCell>
        <mxCell id="y4kUTRMp_-QWgq1k1_cl-42" value="&lt;div&gt;view&lt;/div&gt;&lt;div&gt;booking&lt;/div&gt;&lt;div&gt;history&lt;/div&gt;" style="ellipse;whiteSpace=wrap;html=1;" vertex="1" parent="1">
          <mxGeometry x="440" y="670" width="80" height="50" as="geometry" />
        </mxCell>
        <mxCell id="y4kUTRMp_-QWgq1k1_cl-43" value="&lt;div&gt;pay for&lt;/div&gt;&lt;div&gt;parking&lt;/div&gt;" style="ellipse;whiteSpace=wrap;html=1;" vertex="1" parent="1">
          <mxGeometry x="310" y="610" width="80" height="50" as="geometry" />
        </mxCell>
        <mxCell id="y4kUTRMp_-QWgq1k1_cl-44" value="&lt;div&gt;Download &lt;br&gt;&lt;/div&gt;&lt;div&gt;invoices&lt;/div&gt;" style="ellipse;whiteSpace=wrap;html=1;" vertex="1" parent="1">
          <mxGeometry x="400" y="600" width="80" height="50" as="geometry" />
        </mxCell>
        <mxCell id="y4kUTRMp_-QWgq1k1_cl-45" value="&lt;div&gt;Refund &lt;br&gt;&lt;/div&gt;" style="ellipse;whiteSpace=wrap;html=1;" vertex="1" parent="1">
          <mxGeometry x="330" y="770" width="80" height="50" as="geometry" />
        </mxCell>
        <mxCell id="y4kUTRMp_-QWgq1k1_cl-46" value="&lt;div&gt;confirm&lt;/div&gt;&lt;div&gt;alert&lt;/div&gt;" style="ellipse;whiteSpace=wrap;html=1;" vertex="1" parent="1">
          <mxGeometry x="490" y="590" width="80" height="50" as="geometry" />
        </mxCell>
        <mxCell id="y4kUTRMp_-QWgq1k1_cl-47" value="&lt;div&gt;Payment&lt;/div&gt;&lt;div&gt;alert&lt;/div&gt;" style="ellipse;whiteSpace=wrap;html=1;" vertex="1" parent="1">
          <mxGeometry x="345" y="690" width="80" height="50" as="geometry" />
        </mxCell>
        <mxCell id="y4kUTRMp_-QWgq1k1_cl-48" value="&lt;div&gt;time-based&lt;/div&gt;&lt;div&gt;reminders&lt;/div&gt;" style="ellipse;whiteSpace=wrap;html=1;" vertex="1" parent="1">
          <mxGeometry x="380" y="840" width="80" height="50" as="geometry" />
        </mxCell>
        <mxCell id="y4kUTRMp_-QWgq1k1_cl-49" value="&lt;div&gt;Approve&lt;/div&gt;&lt;div&gt;parkings&lt;/div&gt;" style="ellipse;whiteSpace=wrap;html=1;" vertex="1" parent="1">
          <mxGeometry x="590" y="422" width="80" height="50" as="geometry" />
        </mxCell>
        <mxCell id="y4kUTRMp_-QWgq1k1_cl-50" value="&lt;div&gt;Manage&amp;nbsp;&lt;/div&gt;&lt;div&gt;users&lt;/div&gt;" style="ellipse;whiteSpace=wrap;html=1;" vertex="1" parent="1">
          <mxGeometry x="590" y="510" width="80" height="50" as="geometry" />
        </mxCell>
        <mxCell id="y4kUTRMp_-QWgq1k1_cl-51" value="Ban users" style="ellipse;whiteSpace=wrap;html=1;" vertex="1" parent="1">
          <mxGeometry x="590" y="585" width="80" height="50" as="geometry" />
        </mxCell>
        <mxCell id="y4kUTRMp_-QWgq1k1_cl-52" value="&lt;div&gt;Monitor&lt;/div&gt;&lt;div&gt;activity&lt;/div&gt;" style="ellipse;whiteSpace=wrap;html=1;" vertex="1" parent="1">
          <mxGeometry x="590" y="660" width="80" height="50" as="geometry" />
        </mxCell>
        <mxCell id="y4kUTRMp_-QWgq1k1_cl-53" value="&lt;div&gt;Generate&lt;/div&gt;&lt;div&gt;reports&lt;/div&gt;" style="ellipse;whiteSpace=wrap;html=1;" vertex="1" parent="1">
          <mxGeometry x="590" y="730" width="80" height="50" as="geometry" />
        </mxCell>
        <mxCell id="y4kUTRMp_-QWgq1k1_cl-54" value="&lt;div&gt;scan&amp;nbsp;&lt;/div&gt;&lt;div&gt;number&amp;nbsp;&lt;/div&gt;&lt;div&gt;plate&lt;/div&gt;" style="ellipse;whiteSpace=wrap;html=1;" vertex="1" parent="1">
          <mxGeometry x="300" y="320" width="80" height="50" as="geometry" />
        </mxCell>
        <mxCell id="y4kUTRMp_-QWgq1k1_cl-55" value="" style="endArrow=none;html=1;rounded=0;exitX=0.5;exitY=1;exitDx=0;exitDy=0;" edge="1" parent="1" source="y4kUTRMp_-QWgq1k1_cl-35">
          <mxGeometry width="50" height="50" relative="1" as="geometry">
            <mxPoint x="760" y="410" as="sourcePoint" />
            <mxPoint x="750" y="210" as="targetPoint" />
            <Array as="points">
              <mxPoint x="430" y="390" />
              <mxPoint x="750" y="390" />
            </Array>
          </mxGeometry>
        </mxCell>
        <mxCell id="y4kUTRMp_-QWgq1k1_cl-56" value="" style="endArrow=none;html=1;rounded=0;exitX=0.5;exitY=1;exitDx=0;exitDy=0;" edge="1" parent="1" source="y4kUTRMp_-QWgq1k1_cl-54">
          <mxGeometry width="50" height="50" relative="1" as="geometry">
            <mxPoint x="770" y="410" as="sourcePoint" />
            <mxPoint x="760" y="210" as="targetPoint" />
            <Array as="points">
              <mxPoint x="340" y="410" />
              <mxPoint x="550" y="410" />
              <mxPoint x="760" y="410" />
            </Array>
          </mxGeometry>
        </mxCell>
        <mxCell id="y4kUTRMp_-QWgq1k1_cl-57" value="" style="endArrow=none;html=1;rounded=0;exitX=1;exitY=0.5;exitDx=0;exitDy=0;" edge="1" parent="1" source="y4kUTRMp_-QWgq1k1_cl-49">
          <mxGeometry width="50" height="50" relative="1" as="geometry">
            <mxPoint x="740" y="500" as="sourcePoint" />
            <mxPoint x="770" y="630" as="targetPoint" />
            <Array as="points">
              <mxPoint x="770" y="447" />
            </Array>
          </mxGeometry>
        </mxCell>
        <mxCell id="y4kUTRMp_-QWgq1k1_cl-58" value="" style="endArrow=none;html=1;rounded=0;exitX=1;exitY=0.5;exitDx=0;exitDy=0;" edge="1" parent="1" source="y4kUTRMp_-QWgq1k1_cl-50">
          <mxGeometry width="50" height="50" relative="1" as="geometry">
            <mxPoint x="710" y="550" as="sourcePoint" />
            <mxPoint x="750" y="640" as="targetPoint" />
            <Array as="points">
              <mxPoint x="750" y="535" />
            </Array>
          </mxGeometry>
        </mxCell>
        <mxCell id="y4kUTRMp_-QWgq1k1_cl-59" value="" style="endArrow=none;html=1;rounded=0;" edge="1" parent="1" source="y4kUTRMp_-QWgq1k1_cl-53">
          <mxGeometry width="50" height="50" relative="1" as="geometry">
            <mxPoint x="780" y="800" as="sourcePoint" />
            <mxPoint x="770" y="720" as="targetPoint" />
            <Array as="points">
              <mxPoint x="770" y="755" />
            </Array>
          </mxGeometry>
        </mxCell>
        <mxCell id="y4kUTRMp_-QWgq1k1_cl-60" value="" style="endArrow=none;html=1;rounded=0;exitX=1;exitY=0.5;exitDx=0;exitDy=0;" edge="1" parent="1" source="y4kUTRMp_-QWgq1k1_cl-51">
          <mxGeometry width="50" height="50" relative="1" as="geometry">
            <mxPoint x="820" y="600" as="sourcePoint" />
            <mxPoint x="750" y="650" as="targetPoint" />
          </mxGeometry>
        </mxCell>
        <mxCell id="y4kUTRMp_-QWgq1k1_cl-61" value="" style="endArrow=none;html=1;rounded=0;exitX=1;exitY=0.5;exitDx=0;exitDy=0;" edge="1" parent="1" source="y4kUTRMp_-QWgq1k1_cl-52">
          <mxGeometry width="50" height="50" relative="1" as="geometry">
            <mxPoint x="700" y="720" as="sourcePoint" />
            <mxPoint x="750" y="670" as="targetPoint" />
          </mxGeometry>
        </mxCell>
        <mxCell id="y4kUTRMp_-QWgq1k1_cl-62" value="" style="endArrow=none;html=1;rounded=0;entryX=0.5;entryY=1;entryDx=0;entryDy=0;" edge="1" parent="1" target="y4kUTRMp_-QWgq1k1_cl-38">
          <mxGeometry width="50" height="50" relative="1" as="geometry">
            <mxPoint x="220" y="570" as="sourcePoint" />
            <mxPoint x="120" y="460" as="targetPoint" />
            <Array as="points">
              <mxPoint x="260" y="570" />
              <mxPoint x="270" y="500" />
              <mxPoint x="530" y="500" />
            </Array>
          </mxGeometry>
        </mxCell>
        <mxCell id="y4kUTRMp_-QWgq1k1_cl-63" value="" style="endArrow=none;html=1;rounded=0;entryX=0.5;entryY=1;entryDx=0;entryDy=0;" edge="1" parent="1" target="y4kUTRMp_-QWgq1k1_cl-37">
          <mxGeometry width="50" height="50" relative="1" as="geometry">
            <mxPoint x="220" y="560" as="sourcePoint" />
            <mxPoint x="280" y="440" as="targetPoint" />
            <Array as="points">
              <mxPoint x="240" y="490" />
              <mxPoint x="440" y="490" />
            </Array>
          </mxGeometry>
        </mxCell>
        <mxCell id="y4kUTRMp_-QWgq1k1_cl-64" value="" style="endArrow=none;html=1;rounded=0;entryX=0;entryY=0.5;entryDx=0;entryDy=0;" edge="1" parent="1" target="y4kUTRMp_-QWgq1k1_cl-36">
          <mxGeometry width="50" height="50" relative="1" as="geometry">
            <mxPoint x="210" y="560" as="sourcePoint" />
            <mxPoint x="150" y="510" as="targetPoint" />
            <Array as="points">
              <mxPoint x="220" y="447" />
            </Array>
          </mxGeometry>
        </mxCell>
        <mxCell id="y4kUTRMp_-QWgq1k1_cl-65" value="" style="endArrow=none;html=1;rounded=0;entryX=0;entryY=0.5;entryDx=0;entryDy=0;" edge="1" parent="1" target="y4kUTRMp_-QWgq1k1_cl-39">
          <mxGeometry width="50" height="50" relative="1" as="geometry">
            <mxPoint x="230" y="610" as="sourcePoint" />
            <mxPoint x="280" y="560" as="targetPoint" />
          </mxGeometry>
        </mxCell>
        <mxCell id="y4kUTRMp_-QWgq1k1_cl-66" value="" style="endArrow=none;html=1;rounded=0;entryX=0;entryY=1;entryDx=0;entryDy=0;" edge="1" parent="1" target="y4kUTRMp_-QWgq1k1_cl-40">
          <mxGeometry width="50" height="50" relative="1" as="geometry">
            <mxPoint x="230" y="620" as="sourcePoint" />
            <mxPoint x="230" y="690" as="targetPoint" />
          </mxGeometry>
        </mxCell>
        <mxCell id="y4kUTRMp_-QWgq1k1_cl-67" value="" style="endArrow=none;html=1;rounded=0;" edge="1" parent="1" target="y4kUTRMp_-QWgq1k1_cl-41">
          <mxGeometry width="50" height="50" relative="1" as="geometry">
            <mxPoint x="230" y="630" as="sourcePoint" />
            <mxPoint x="220" y="700" as="targetPoint" />
            <Array as="points">
              <mxPoint x="470" y="570" />
            </Array>
          </mxGeometry>
        </mxCell>
        <mxCell id="y4kUTRMp_-QWgq1k1_cl-68" value="" style="endArrow=none;html=1;rounded=0;entryX=0;entryY=0.5;entryDx=0;entryDy=0;" edge="1" parent="1" target="y4kUTRMp_-QWgq1k1_cl-43">
          <mxGeometry width="50" height="50" relative="1" as="geometry">
            <mxPoint x="230" y="640" as="sourcePoint" />
            <mxPoint x="310" y="630" as="targetPoint" />
          </mxGeometry>
        </mxCell>
        <mxCell id="y4kUTRMp_-QWgq1k1_cl-69" value="" style="endArrow=none;html=1;rounded=0;entryX=0.5;entryY=1;entryDx=0;entryDy=0;" edge="1" parent="1">
          <mxGeometry width="50" height="50" relative="1" as="geometry">
            <mxPoint x="229" y="660" as="sourcePoint" />
            <mxPoint x="449" y="650" as="targetPoint" />
            <Array as="points">
              <mxPoint x="229" y="690" />
              <mxPoint x="319" y="680" />
            </Array>
          </mxGeometry>
        </mxCell>
        <mxCell id="y4kUTRMp_-QWgq1k1_cl-70" value="" style="endArrow=none;html=1;rounded=0;" edge="1" parent="1">
          <mxGeometry width="50" height="50" relative="1" as="geometry">
            <mxPoint x="214" y="660" as="sourcePoint" />
            <mxPoint x="530" y="640" as="targetPoint" />
            <Array as="points">
              <mxPoint x="214" y="720" />
            </Array>
          </mxGeometry>
        </mxCell>
        <mxCell id="y4kUTRMp_-QWgq1k1_cl-71" value="" style="endArrow=none;html=1;rounded=0;exitX=0;exitY=0.5;exitDx=0;exitDy=0;" edge="1" parent="1" source="y4kUTRMp_-QWgq1k1_cl-47">
          <mxGeometry width="50" height="50" relative="1" as="geometry">
            <mxPoint x="323.79999999999995" y="767.4000000000001" as="sourcePoint" />
            <mxPoint x="199" y="670" as="targetPoint" />
            <Array as="points">
              <mxPoint x="199" y="750" />
            </Array>
          </mxGeometry>
        </mxCell>
        <mxCell id="y4kUTRMp_-QWgq1k1_cl-72" value="" style="endArrow=none;html=1;rounded=0;entryX=0.5;entryY=1;entryDx=0;entryDy=0;" edge="1" parent="1" target="y4kUTRMp_-QWgq1k1_cl-42">
          <mxGeometry width="50" height="50" relative="1" as="geometry">
            <mxPoint x="190" y="670" as="sourcePoint" />
            <mxPoint x="200" y="850" as="targetPoint" />
            <Array as="points">
              <mxPoint x="180" y="780" />
              <mxPoint x="430" y="750" />
            </Array>
          </mxGeometry>
        </mxCell>
        <mxCell id="y4kUTRMp_-QWgq1k1_cl-73" value="" style="endArrow=none;html=1;rounded=0;entryX=0.075;entryY=0.672;entryDx=0;entryDy=0;entryPerimeter=0;" edge="1" parent="1" target="y4kUTRMp_-QWgq1k1_cl-45">
          <mxGeometry width="50" height="50" relative="1" as="geometry">
            <mxPoint x="180" y="620" as="sourcePoint" />
            <mxPoint x="240" y="820" as="targetPoint" />
            <Array as="points">
              <mxPoint x="160" y="800" />
            </Array>
          </mxGeometry>
        </mxCell>
        <mxCell id="y4kUTRMp_-QWgq1k1_cl-74" value="" style="endArrow=none;html=1;rounded=0;entryX=0;entryY=0.5;entryDx=0;entryDy=0;" edge="1" parent="1" target="y4kUTRMp_-QWgq1k1_cl-48">
          <mxGeometry width="50" height="50" relative="1" as="geometry">
            <mxPoint x="180" y="590" as="sourcePoint" />
            <mxPoint x="240" y="840" as="targetPoint" />
            <Array as="points">
              <mxPoint x="130" y="860" />
            </Array>
          </mxGeometry>
        </mxCell>
      </root>
    </mxGraphModel>
  </diagram>
</mxfile>
